<svg width="25" height="25" viewBox="0 0 25 25" fill="none" xmlns="http://www.w3.org/2000/svg">
<path d="M24.3409 11.1748L21.6582 10.3748C21.4728 9.72788 21.2177 9.1029 20.8975 8.51083L22.2108 6.05485C22.2601 5.96214 22.2781 5.85603 22.2622 5.75227C22.2464 5.64851 22.1974 5.55263 22.1227 5.47885L20.2088 3.55886C20.135 3.48419 20.039 3.43531 19.9351 3.41946C19.8313 3.4036 19.7251 3.42163 19.6323 3.47086L17.1899 4.77485C16.5914 4.43938 15.9576 4.17108 15.3 3.97486L14.4992 1.32687C14.4654 1.22928 14.4014 1.14495 14.3165 1.08601C14.2316 1.02707 14.1301 0.996557 14.0268 0.998871H11.3201C11.2161 0.999355 11.115 1.03298 11.0315 1.09485C10.948 1.15672 10.8864 1.24361 10.8557 1.34287L10.0549 3.98286C9.39186 4.17804 8.75264 4.44636 8.14904 4.78285L5.74669 3.48686C5.65389 3.43763 5.54768 3.4196 5.44382 3.43546C5.33995 3.45131 5.24397 3.50019 5.17012 3.57486L3.22422 5.47085C3.14949 5.54463 3.10055 5.64051 3.08468 5.74427C3.06881 5.84803 3.08686 5.95414 3.13614 6.04685L4.4334 8.44683C4.09712 9.04731 3.82855 9.68319 3.63262 10.3428L0.982032 11.1428C0.882673 11.1735 0.795699 11.235 0.733768 11.3185C0.671836 11.4019 0.638179 11.5029 0.637695 11.6068V14.3108C0.638179 14.4147 0.671836 14.5157 0.733768 14.5992C0.795699 14.6826 0.882673 14.7441 0.982032 14.7748L3.64864 15.5748C3.84671 16.2234 4.11523 16.8485 4.44942 17.4388L3.13614 19.9508C3.08686 20.0435 3.06881 20.1496 3.08468 20.2533C3.10055 20.3571 3.14949 20.453 3.22422 20.5268L5.13809 22.4388C5.21194 22.5134 5.30792 22.5623 5.41178 22.5782C5.51565 22.594 5.62186 22.576 5.71466 22.5268L8.18907 21.2068C8.77442 21.5223 9.39186 21.7744 10.0309 21.9588L10.8317 24.6548C10.8623 24.754 10.9239 24.8409 11.0075 24.9028C11.091 24.9646 11.1921 24.9983 11.2961 24.9987H14.0028C14.1067 24.9983 14.2079 24.9646 14.2914 24.9028C14.3749 24.8409 14.4365 24.754 14.4672 24.6548L15.268 21.9508C15.9015 21.7655 16.5136 21.5134 17.0938 21.1988L19.5842 22.5268C19.677 22.576 19.7832 22.594 19.8871 22.5782C19.9909 22.5623 20.0869 22.5134 20.1608 22.4388L22.0746 20.5268C22.1494 20.453 22.1983 20.3571 22.2142 20.2533C22.2301 20.1496 22.212 20.0435 22.1627 19.9508L20.8334 17.4708C21.1516 16.8889 21.4067 16.2748 21.5942 15.6388L24.2928 14.8388C24.3922 14.8081 24.4791 14.7466 24.5411 14.6632C24.603 14.5797 24.6367 14.4787 24.6371 14.3748V11.6468C24.6419 11.5473 24.616 11.4488 24.5631 11.3644C24.5101 11.2801 24.4326 11.2139 24.3409 11.1748ZM12.6735 17.3988C11.8024 17.3988 10.9508 17.1407 10.2266 16.6573C9.50227 16.1738 8.93776 15.4866 8.60441 14.6826C8.27106 13.8786 8.18384 12.9939 8.35378 12.1404C8.52372 11.2869 8.94319 10.5029 9.55914 9.88756C10.1751 9.27221 10.9599 8.85315 11.8142 8.68338C12.6686 8.5136 13.5541 8.60074 14.3589 8.93376C15.1637 9.26679 15.8515 9.83074 16.3355 10.5543C16.8195 11.2779 17.0778 12.1286 17.0778 12.9988C17.0778 14.1658 16.6137 15.2849 15.7878 16.1101C14.9618 16.9352 13.8415 17.3988 12.6735 17.3988Z" fill="#006FFD"/>
</svg>
