<svg width="25" height="25" viewBox="0 0 25 25" fill="none" xmlns="http://www.w3.org/2000/svg">
<path d="M3.47012 11.3311C3.24909 11.3311 3.03711 11.2433 2.88082 11.087C2.72452 10.9307 2.63672 10.7187 2.63672 10.4977V3.83215C2.63672 3.61112 2.72452 3.39914 2.88082 3.24285C3.03711 3.08655 3.24909 2.99875 3.47012 2.99875H10.1373C10.3584 2.99875 10.5704 3.08655 10.7266 3.24285C10.8829 3.39914 10.9707 3.61112 10.9707 3.83215V10.4977C10.9707 10.7187 10.8829 10.9307 10.7266 11.087C10.5704 11.2433 10.3584 11.3311 10.1373 11.3311H3.47012ZM15.1378 11.3311C14.9167 11.3311 14.7047 11.2433 14.5485 11.087C14.3922 10.9307 14.3044 10.7187 14.3044 10.4977V3.83215C14.3044 3.61112 14.3922 3.39914 14.5485 3.24285C14.7047 3.08655 14.9167 2.99875 15.1378 2.99875H21.8033C22.0243 2.99875 22.2363 3.08655 22.3926 3.24285C22.5489 3.39914 22.6367 3.61112 22.6367 3.83215V10.4977C22.6367 10.7187 22.5489 10.9307 22.3926 11.087C22.2363 11.2433 22.0243 11.3311 21.8033 11.3311H15.1378ZM3.47012 22.9988C3.24909 22.9988 3.03711 22.9109 2.88082 22.7547C2.72452 22.5984 2.63672 22.3864 2.63672 22.1653V15.4981C2.63672 15.2771 2.72452 15.0651 2.88082 14.9088C3.03711 14.7525 3.24909 14.6647 3.47012 14.6647H10.1373C10.3584 14.6647 10.5704 14.7525 10.7266 14.9088C10.8829 15.0651 10.9707 15.2771 10.9707 15.4981V22.1653C10.9707 22.3864 10.8829 22.5984 10.7266 22.7547C10.5704 22.9109 10.3584 22.9988 10.1373 22.9988H3.47012ZM15.1378 22.9988C14.9167 22.9988 14.7047 22.9109 14.5485 22.7547C14.3922 22.5984 14.3044 22.3864 14.3044 22.1653V15.4981C14.3044 15.2771 14.3922 15.0651 14.5485 14.9088C14.7047 14.7525 14.9167 14.6647 15.1378 14.6647H21.8033C22.0243 14.6647 22.2363 14.7525 22.3926 14.9088C22.5489 15.0651 22.6367 15.2771 22.6367 15.4981V22.1653C22.6367 22.3864 22.5489 22.5984 22.3926 22.7547C22.2363 22.9109 22.0243 22.9988 21.8033 22.9988H15.1378Z" fill="#006FFD"/>
</svg>
