<svg width="25" height="25" viewBox="0 0 25 25" fill="none" xmlns="http://www.w3.org/2000/svg">
<path d="M9.2334 9.71485C9.2334 11.0956 8.15889 12.2148 6.8334 12.2148C5.50792 12.2148 4.4334 11.0956 4.4334 9.71485C4.4334 8.33414 5.50792 7.21486 6.8334 7.21486C8.15889 7.21486 9.2334 8.33414 9.2334 9.71485Z" fill="#006FFD"/>
<path fill-rule="evenodd" clip-rule="evenodd" d="M0.636719 5.49874C0.636719 4.11804 1.71124 2.99875 3.03672 2.99875H22.2367C23.5622 2.99875 24.6367 4.11804 24.6367 5.49874V20.4987C24.6367 21.8794 23.5622 22.9987 22.2367 22.9987H20.6525C20.6473 22.9987 20.642 22.9987 20.6367 22.9987H3.5837C3.57918 22.9987 3.57466 22.9987 3.57014 22.9987H3.03672C1.71124 22.9987 0.636719 21.8794 0.636719 20.4987V5.49874ZM3.03672 4.87375H22.2367C22.5681 4.87375 22.8367 5.15357 22.8367 5.49874V13.2889L17.6224 7.99877L8.75132 16.9988L6.13814 14.3476L2.43672 18.1028V5.49874C2.43672 5.15357 2.70535 4.87375 3.03672 4.87375Z" fill="#006FFD"/>
</svg>
